<?xml version="1.0"?>
<svg width="240" height="39" xmlns="http://www.w3.org/2000/svg" xmlns:svg="http://www.w3.org/2000/svg">

 <g class="layer">
  <title>Layer 1</title>
  <g fill="none" fill-rule="nonzero" id="svg_1">
   <path d="m27.97,0.88c-7.73,0 -15.79,1.74 -23.92,3.99c-1.04,0.21 -2.04,0.89 -2.58,1.72c-0.49,0.79 -0.66,1.58 -0.82,2.41c-0.79,4.43 -0.69,8.78 -0.53,13.59c0.04,1.11 0.2,2.41 0.72,3.21c0.54,0.8 1.46,1.31 2.56,1.48a95.99,95.99 0 0 0 4.23,0.52l-0.31,8.7c-0.05,0.69 0.29,1.27 0.71,1.6c0.37,0.29 0.79,0.41 1.22,0.44c0.86,0.07 1.87,-0.3 2.37,-1.25c2.2,-4.23 3.57,-6.09 6.32,-8.9c7.16,0.18 13.41,-0.22 20.48,-0.74c2.5,-0.07 4.22,-2.11 4.67,-3.75c1.36,-4.23 1.57,-9.45 1.72,-14.73c0.06,-2.1 -0.67,-4.15 -1.95,-5.24c-1.23,-0.99 -2.71,-1.35 -4.06,-1.71c-3.77,-0.86 -7.54,-1.31 -10.83,-1.34zm10.29,3.31c1.35,0.37 2.55,0.72 3.31,1.34c1.26,1.34 1.21,2.23 1.2,3.67c-0.14,5.12 -0.39,10.09 -1.55,13.86c-0.49,1.41 -1.36,2.41 -3,2.56c-7.21,0.53 -13.46,0.94 -20.71,0.74a1.03,1.03 0 0 0 -0.76,0.3c-3.05,3.07 -4.6,5.21 -6.92,9.67c-0.06,0.11 -0.17,0.17 -0.32,0.18c-0.1,-0.01 -0.13,-0.08 -0.14,-0.15l0.31,-9.43c0.02,-0.51 -0.4,-1 -0.9,-1.05a95.48,95.48 0 0 1 -5.06,-0.62c-0.73,-0.11 -1,-0.31 -1.2,-0.61c-0.34,-0.82 -0.33,-1.33 -0.36,-2.13c-0.16,-4.77 -0.24,-8.94 0.49,-13.1c0.07,-0.61 0.3,-1.24 0.54,-1.76c0.41,-0.63 1.02,-0.73 1.65,-0.9c7.95,-2.2 15.74,-3.84 23.06,-3.84c3.6,0.13 7.37,0.49 10.36,1.27zm-27.48,8.09c-1.1,1.31 -0.99,3.1 -0.14,4.29c0.44,0.62 1.13,1.13 1.97,1.24c1.09,0.09 1.78,-0.35 2.53,-0.86c1.35,-1.17 1.49,-3.23 0.46,-4.71c-0.52,-0.75 -1.36,-1.21 -2.22,-1.24c-1.17,0.01 -1.97,0.54 -2.6,1.28zm11.85,-1.07c-1.09,0.03 -1.97,0.79 -2.51,1.6c-0.62,0.94 -0.98,2.1 -0.48,3.25c0.96,2.2 4.28,2.18 5.6,-0.06c0.61,-1.04 0.46,-2.21 0,-3.06c-0.45,-0.85 -1.13,-1.54 -2.13,-1.7a2.49,2.49 0 0 0 -0.48,-0.03zm9.63,0.2c-0.34,0 -0.69,0.03 -1.02,0.12c-1.31,0.35 -2.43,1.7 -2.26,3.43c0.09,0.87 0.49,1.72 1.21,2.31c0.72,0.59 1.77,0.85 2.88,0.62c1.27,-0.26 2.06,-1.28 2.32,-2.27c0.27,-0.99 0.2,-2 -0.41,-2.82a3.47,3.47 0 0 0 -2.72,-1.39zm-18.97,1.63c0.25,0 0.44,0.08 0.64,0.36c0.45,0.64 0.32,1.62 -0.13,2.01c-0.44,0.39 -0.72,0.42 -0.92,0.4c-0.19,-0.03 -0.39,-0.17 -0.57,-0.42c-0.34,-0.48 -0.44,-1.25 0,-1.81c0.24,-0.31 0.68,-0.51 0.98,-0.54zm9.49,0.22c0.04,0.01 0.46,0.25 0.67,0.64c0.2,0.38 0.24,0.74 0.04,1.06c-0.57,0.98 -1.8,0.71 -1.99,0.29c-0.07,-0.16 -0.01,-0.81 0.32,-1.32c0.34,-0.51 0.76,-0.7 0.96,-0.67zm10.56,0.75c0.06,0.08 0.21,0.64 0.1,1.08c-0.12,0.44 -0.31,0.72 -0.78,0.81c-0.61,0.13 -0.94,0 -1.2,-0.21c-0.25,-0.2 -0.42,-0.55 -0.46,-0.92c-0.09,-0.92 0.24,-1.13 0.77,-1.27c0.61,-0.15 1.3,0.11 1.57,0.51z" fill="#ffffff" id="svg_2"/>
   <path d="m57.61,5c0.02,-0.26 0.11,-0.5 0.29,-0.7a0.88,0.88 0 0 1 0.7,-0.31l6.82,0c0.23,0 0.47,0.09 0.72,0.28a0.88,0.88 0 0 1 0.36,0.73l0,10.89l11.43,0l0,-10.89c0,-0.28 0.09,-0.52 0.28,-0.72c0.19,-0.2 0.44,-0.3 0.75,-0.3l6.73,0c0.31,0 0.58,0.08 0.81,0.23c0.23,0.16 0.34,0.4 0.34,0.74l0,32.15c0,0.34 -0.1,0.59 -0.3,0.76c-0.2,0.17 -0.46,0.25 -0.78,0.25l-6.8,0c-0.31,0 -0.56,-0.08 -0.75,-0.25c-0.19,-0.17 -0.28,-0.42 -0.28,-0.76l0,-13.05l-11.43,0l0,13.05c0,0.32 -0.1,0.57 -0.31,0.75c-0.2,0.17 -0.48,0.26 -0.84,0.26l-6.75,0c-0.65,0 -0.97,-0.3 -0.99,-0.89l0,-32.22zm62.87,32.72c-0.19,0.17 -0.4,0.28 -0.63,0.32a3.12,3.12 0 0 1 -0.63,0.07l-3.47,0c-0.27,0 -0.51,-0.05 -0.71,-0.15c-0.2,-0.1 -0.37,-0.23 -0.51,-0.4a2.38,2.38 0 0 1 -0.34,-0.58a4.88,4.88 0 0 1 -0.23,-0.66l-0.71,-2.94c-0.23,0.47 -0.57,1.01 -1,1.62a8.49,8.49 0 0 1 -1.67,1.7c-0.67,0.53 -1.48,0.97 -2.41,1.33c-0.94,0.36 -2.01,0.54 -3.22,0.54c-1.75,0 -3.33,-0.34 -4.76,-1.01a10.9,10.9 0 0 1 -3.64,-2.76c-1,-1.16 -1.78,-2.52 -2.33,-4.08c-0.55,-1.55 -0.83,-3.21 -0.83,-4.97l0,-15.05c0,-0.59 0.13,-1.03 0.38,-1.33c0.25,-0.29 0.65,-0.44 1.21,-0.44l5.3,0c0.66,0 1.12,0.11 1.36,0.33c0.25,0.22 0.37,0.65 0.37,1.3l0,14.96c0,0.66 0.15,1.28 0.45,1.87c0.3,0.59 0.69,1.11 1.18,1.56c0.49,0.46 1.05,0.81 1.67,1.07c0.62,0.26 1.25,0.39 1.89,0.39c0.55,0 1.12,-0.13 1.71,-0.39a6.36,6.36 0 0 0 1.64,-1.04c0.49,-0.44 0.9,-0.95 1.23,-1.54c0.32,-0.59 0.48,-1.22 0.48,-1.88l0,-14.93c0,-0.26 0.05,-0.52 0.15,-0.79c0.1,-0.26 0.25,-0.46 0.45,-0.59c0.19,-0.13 0.38,-0.21 0.56,-0.26c0.17,-0.04 0.38,-0.07 0.61,-0.07l5.19,0c0.66,0 1.13,0.17 1.43,0.49c0.29,0.32 0.43,0.75 0.43,1.28l0,25.72c0,0.29 -0.06,0.56 -0.19,0.81s-0.31,0.43 -0.54,0.57l0.13,-0.07zm26.69,-3.17c-0.42,0.41 -0.87,0.86 -1.37,1.33c-0.5,0.48 -1.05,0.92 -1.64,1.34a9.3,9.3 0 0 1 -1.93,1.02a6.1,6.1 0 0 1 -2.23,0.4c-2.09,0 -4.01,-0.39 -5.76,-1.17a13.78,13.78 0 0 1 -4.53,-3.21c-1.26,-1.35 -2.25,-2.95 -2.96,-4.79c-0.71,-1.84 -1.07,-3.81 -1.07,-5.93c0,-2.13 0.36,-4.11 1.07,-5.94c0.71,-1.83 1.7,-3.42 2.96,-4.78a13.63,13.63 0 0 1 4.53,-3.19c1.75,-0.78 3.67,-1.16 5.76,-1.16c0.84,0 1.61,0.12 2.31,0.36a8.51,8.51 0 0 1 1.9,0.95c0.58,0.38 1.11,0.81 1.59,1.29c0.48,0.49 0.94,0.96 1.37,1.42l0,-10.51c0,-0.49 0.15,-0.9 0.44,-1.24c0.3,-0.33 0.75,-0.5 1.35,-0.5l5.17,0c0.2,0 0.41,0.04 0.63,0.12c0.22,0.09 0.43,0.21 0.61,0.36c0.18,0.15 0.33,0.34 0.45,0.55c0.11,0.22 0.17,0.45 0.17,0.71l0,34.36c0,1.18 -0.62,1.77 -1.86,1.77l-4.5,0c-0.31,0 -0.55,-0.04 -0.72,-0.11a1.13,1.13 0 0 1 -0.42,-0.34a2.32,2.32 0 0 1 -0.31,-0.55a17.13,17.13 0 0 0 -0.35,-0.77l-0.66,-1.79zm-13.22,-11.01a8.39,8.39 0 0 0 0.47,2.84c0.32,0.88 0.77,1.64 1.35,2.29a6.38,6.38 0 0 0 2.1,1.52c0.82,0.38 1.73,0.57 2.72,0.57c0.98,0 1.91,-0.18 2.77,-0.53a7.06,7.06 0 0 0 2.27,-1.46a7.26,7.26 0 0 0 1.55,-2.19c0.39,-0.85 0.61,-1.75 0.65,-2.72l0,-0.32a7.26,7.26 0 0 0 -0.55,-2.8a7.43,7.43 0 0 0 -1.53,-2.35a7.24,7.24 0 0 0 -2.29,-1.59a6.98,6.98 0 0 0 -2.87,-0.59c-0.99,0 -1.9,0.2 -2.72,0.59c-0.82,0.39 -1.52,0.92 -2.1,1.59a7.24,7.24 0 0 0 -1.35,2.35a8.35,8.35 0 0 0 -0.47,2.8zm48.72,11.01c-0.41,0.41 -0.87,0.86 -1.37,1.33c-0.49,0.48 -1.04,0.92 -1.64,1.34a9.3,9.3 0 0 1 -1.93,1.02a6.1,6.1 0 0 1 -2.23,0.4c-2.08,0 -4,-0.39 -5.75,-1.17a13.78,13.78 0 0 1 -4.53,-3.21c-1.27,-1.35 -2.25,-2.95 -2.97,-4.79c-0.71,-1.84 -1.07,-3.81 -1.07,-5.93c0,-2.13 0.36,-4.11 1.07,-5.94s1.7,-3.42 2.97,-4.78a13.63,13.63 0 0 1 4.53,-3.19c1.75,-0.78 3.67,-1.16 5.75,-1.16c0.84,0 1.61,0.12 2.31,0.36a8.51,8.51 0 0 1 1.91,0.95c0.57,0.38 1.1,0.81 1.58,1.29c0.49,0.49 0.94,0.96 1.37,1.42l0,-10.51c0,-0.49 0.15,-0.9 0.45,-1.24c0.3,-0.33 0.75,-0.5 1.34,-0.5l5.17,0c0.2,0 0.41,0.04 0.64,0.12c0.22,0.09 0.42,0.21 0.61,0.36c0.18,0.15 0.33,0.34 0.44,0.55c0.12,0.22 0.18,0.45 0.18,0.71l0,34.36c0,1.18 -0.62,1.77 -1.87,1.77l-4.5,0c-0.31,0 -0.54,-0.04 -0.71,-0.11a1.13,1.13 0 0 1 -0.43,-0.34a2.32,2.32 0 0 1 -0.31,-0.55a17.13,17.13 0 0 0 -0.34,-0.77l-0.67,-1.79zm-13.21,-11.01a8.39,8.39 0 0 0 0.47,2.84c0.31,0.88 0.76,1.64 1.34,2.29a6.38,6.38 0 0 0 2.11,1.52c0.82,0.38 1.72,0.57 2.72,0.57c0.98,0 1.9,-0.18 2.77,-0.53a7.06,7.06 0 0 0 2.26,-1.46a7.26,7.26 0 0 0 1.55,-2.19c0.39,-0.85 0.61,-1.75 0.66,-2.72l0,-0.32a7.26,7.26 0 0 0 -0.55,-2.8a7.43,7.43 0 0 0 -1.53,-2.35a7.24,7.24 0 0 0 -2.3,-1.59a6.98,6.98 0 0 0 -2.86,-0.59c-1,0 -1.9,0.2 -2.72,0.59c-0.82,0.39 -1.52,0.92 -2.11,1.59a7.24,7.24 0 0 0 -1.34,2.35a8.35,8.35 0 0 0 -0.47,2.8zm28.15,-21.53c0,-0.49 0.12,-0.91 0.37,-1.24c0.24,-0.34 0.66,-0.51 1.26,-0.51l5.63,0c0.16,0 0.32,0.04 0.48,0.13a1.7,1.7 0 0 1 0.48,0.35c0.14,0.16 0.26,0.34 0.36,0.56c0.1,0.21 0.15,0.45 0.15,0.71l0,34.33c0,0.58 -0.16,1.02 -0.49,1.32c-0.33,0.3 -0.76,0.45 -1.28,0.45l-5.33,0c-0.6,0 -1.02,-0.15 -1.26,-0.45c-0.25,-0.3 -0.37,-0.74 -0.37,-1.32l0,-34.33zm38.7,32.61a15.31,15.31 0 0 1 -4.55,2.9a13.87,13.87 0 0 1 -5.35,1.05c-2.1,0 -4.09,-0.38 -5.96,-1.15a15.49,15.49 0 0 1 -4.92,-3.18a15.27,15.27 0 0 1 -3.35,-4.79c-0.83,-1.84 -1.24,-3.84 -1.24,-6c0,-1.35 0.16,-2.66 0.49,-3.92a15.45,15.45 0 0 1 1.4,-3.55a15.05,15.05 0 0 1 2.21,-3.04a13.96,13.96 0 0 1 2.91,-2.38a14.33,14.33 0 0 1 3.49,-1.54a14.08,14.08 0 0 1 3.98,-0.55c1.27,0 2.5,0.16 3.7,0.5c1.19,0.34 2.31,0.81 3.36,1.43c1.05,0.61 2.01,1.34 2.89,2.2a14.9,14.9 0 0 1 2.25,2.82a13.58,13.58 0 0 1 1.46,3.26c0.34,1.16 0.52,2.35 0.52,3.57c0,0.8 -0.02,1.45 -0.04,1.96c-0.02,0.5 -0.14,0.91 -0.36,1.2c-0.21,0.3 -0.57,0.51 -1.06,0.62c-0.5,0.12 -1.23,0.18 -2.2,0.18l-16.54,0c0.15,0.98 0.46,1.8 0.93,2.46a5.84,5.84 0 0 0 1.62,1.57c0.61,0.39 1.26,0.67 1.95,0.84a8.24,8.24 0 0 0 1.95,0.25c0.56,0 1.12,-0.06 1.7,-0.17a12.18,12.18 0 0 0 1.69,-0.46a9.56,9.56 0 0 0 1.5,-0.67c0.45,-0.25 0.81,-0.51 1.09,-0.79c0.24,-0.2 0.45,-0.35 0.63,-0.45c0.18,-0.1 0.36,-0.15 0.56,-0.15c0.2,0 0.4,0.07 0.61,0.21a4.8,4.8 0 0 1 0.7,0.6l2.44,2.75c0.17,0.2 0.28,0.38 0.32,0.54c0.05,0.17 0.07,0.33 0.07,0.5c0,0.31 -0.09,0.57 -0.25,0.79a2.89,2.89 0 0 1 -0.6,0.59zm-11.05,-19.15c-0.6,0 -1.18,0.12 -1.74,0.36a6.55,6.55 0 0 0 -1.57,0.95c-0.49,0.4 -0.93,0.85 -1.32,1.36a8.31,8.31 0 0 0 -0.96,1.54l11.74,0a13.54,13.54 0 0 0 -1.04,-1.65a7.08,7.08 0 0 0 -1.29,-1.34a5.56,5.56 0 0 0 -1.65,-0.89c-0.62,-0.22 -1.35,-0.33 -2.17,-0.33z" fill="#ffffff" id="svg_3"/>
  </g>
 </g>
</svg>